<?xml version="1.0" standalone="no"?>
<!DOCTYPE svg PUBLIC "-//W3C//DTD SVG 1.1//EN" "http://www.w3.org/Graphics/SVG/1.1/DTD/svg11.dtd" >
<svg xmlns="http://www.w3.org/2000/svg">
<metadata></metadata>
<defs>
<font id="tradegothiccondensed" horiz-adv-x="909" >
<font-face units-per-em="2048" ascent="1638" descent="-410" />
<missing-glyph horiz-adv-x="454" />
<glyph horiz-adv-x="2048" />
<glyph horiz-adv-x="2048" />
<glyph unicode="&#xd;" horiz-adv-x="454" />
<glyph unicode=" "  horiz-adv-x="454" />
<glyph unicode="&#x09;" horiz-adv-x="454" />
<glyph unicode="&#xa0;" horiz-adv-x="454" />
<glyph unicode="!" horiz-adv-x="681" d="M254 0v193h172v-193h-172zM254 1479h172l-33 -1041h-106z" />
<glyph unicode="&#x22;" horiz-adv-x="681" d="M147 954v525h127v-525h-127zM408 954v525h127v-525h-127z" />
<glyph unicode="#" d="M37 465v115h184l37 319h-170v115h180l54 465h118l-51 -465h203l51 465h121l-53 -465h161v-115h-172l-36 -319h159v-115h-172l-51 -465h-121l51 465h-202l-52 -465h-120l53 465h-172zM340 580h205l35 319h-203z" />
<glyph unicode="$" d="M78 406h147q4 -104 40 -180t128 -103v602q-55 37 -109.5 78t-97.5 89t-69.5 107.5t-26.5 133.5q0 70 22.5 129t62.5 105t95.5 74.5t122.5 37.5v196h103v-196q152 -23 229.5 -130.5t81.5 -263.5h-148q-2 43 -12 85t-30.5 79t-50 65.5t-70.5 41.5v-522q59 -41 118.5 -84 t107.5 -98.5t78.5 -124t30.5 -160.5q0 -160 -92 -256.5t-243 -110.5v-238h-103v238q-154 23 -234.5 133.5t-80.5 272.5zM238 1149q0 -80 45 -137.5t110 -106.5v451q-72 -16 -113.5 -72.5t-41.5 -134.5zM496 123q88 8 138 72.5t50 164.5q0 96 -55.5 166t-132.5 129v-532z" />
<glyph unicode="%" horiz-adv-x="1593" d="M94 1159q0 66 24.5 124t67.5 101t101.5 69t126.5 26t126 -26t101 -69t67.5 -101t24.5 -124t-24.5 -124t-67.5 -101t-101.5 -68.5t-125.5 -25.5q-68 0 -126.5 25.5t-101.5 68.5t-67.5 101t-24.5 124zM217 1159q0 -39 15.5 -74.5t41 -62.5t61.5 -43t79 -16t78.5 16t61.5 43 t41 62.5t15 74.5t-15 75t-41 62.5t-61.5 43t-78.5 16.5t-79 -16.5t-61.5 -43t-41 -62.5t-15.5 -75zM287 -20l848 1519h118l-847 -1519h-119zM786 319q0 66 25 124.5t68 101.5t101 68.5t126 25.5t126 -25.5t101 -68.5t67.5 -101.5t24.5 -124.5t-24.5 -124t-67.5 -101 t-101 -68.5t-126 -25.5t-126 25.5t-101 68.5t-68 101t-25 124zM909 319q0 -39 15.5 -74.5t41 -62t61.5 -43t79 -16.5t79 16.5t61.5 43t41 62.5t15.5 74q0 39 -15.5 75t-41 62.5t-61.5 43t-79 16.5t-79 -16.5t-61.5 -43t-41 -62.5t-15.5 -75z" />
<glyph unicode="&#x26;" horiz-adv-x="1138" d="M102 356q0 82 26 147.5t62.5 121t78.5 99.5t77 83q-14 31 -32.5 77t-34 98t-26.5 105.5t-11 98.5q0 80 20.5 138t55 97t81.5 58.5t101 19.5q61 0 111.5 -20.5t87 -56.5t56 -83t19.5 -98q0 -78 -21.5 -139.5t-58.5 -114.5t-84 -100t-96 -94q55 -113 120.5 -214.5 t143.5 -193.5q31 80 44.5 163t21.5 169l143 -8q-4 -66 -11 -120t-18.5 -105.5t-29 -103.5t-43.5 -110q37 -43 82 -83t98 -76l-86 -111q-41 18 -92 57t-92 82q-57 -70 -139.5 -114.5t-174.5 -44.5q-174 0 -276.5 101t-102.5 275zM250 369q0 -115 62.5 -184.5t185.5 -69.5 q61 0 116.5 36.5t90.5 86.5q-88 104 -165 220.5t-134 227.5q-29 -29 -56.5 -66.5t-50.5 -78.5t-36 -85t-13 -87zM389 1198q0 -86 23.5 -152.5t48.5 -130.5q76 84 121 162t45 176q0 55 -33 95.5t-74 40.5q-59 0 -95 -41t-36 -150z" />
<glyph unicode="'" horiz-adv-x="454" d="M164 954v525h127v-525h-127z" />
<glyph unicode="(" horiz-adv-x="569" d="M135 637q0 125 15.5 236.5t46 216t79 206t113.5 203.5l98 -61q-111 -201 -164 -395.5t-53 -405.5t53.5 -405.5t163.5 -395.5l-98 -61q-66 102 -114 203.5t-78.5 206t-46 216t-15.5 236.5z" />
<glyph unicode=")" horiz-adv-x="569" d="M82 -164q111 201 164 395.5t53 405.5t-53 405.5t-164 395.5l98 61q66 -102 114 -203.5t78.5 -206t46 -216t15.5 -236.5t-15.5 -236.5t-46 -216t-78.5 -206t-114 -203.5z" />
<glyph unicode="*" d="M92 1163l41 135l295 -143l-41 324h135l-41 -324l295 143l41 -135l-315 -65l233 -230l-119 -90l-161 283l-162 -283l-119 90l234 230z" />
<glyph unicode="+" horiz-adv-x="1228" d="M82 465v135h465v465h135v-465h465v-135h-465v-465h-135v465h-465z" />
<glyph unicode="," horiz-adv-x="454" d="M129 -307l94 307h-82v193h172v-205l-123 -295h-61z" />
<glyph unicode="-" horiz-adv-x="681" d="M88 465v135h504v-135h-504z" />
<glyph unicode="." horiz-adv-x="454" d="M141 0v193h172v-193h-172z" />
<glyph unicode="/" horiz-adv-x="569" d="M-20 -20l475 1519h135l-475 -1519h-135z" />
<glyph unicode="0" d="M98 739q0 201 21.5 344.5t65.5 235.5t112 136t158 44t157.5 -44t111.5 -136t65.5 -235.5t21.5 -344.5t-21.5 -344t-65.5 -235t-111.5 -136t-157.5 -44t-158 44t-112 136t-65.5 235.5t-21.5 343.5zM246 739q0 -182 13 -304t40 -195.5t65.5 -105.5t90.5 -32q51 0 90 32 t65.5 105.5t40 195.5t13.5 304t-13.5 304t-40 196t-65.5 105.5t-90 31.5t-90 -31.5t-66 -105.5t-40 -195.5t-13 -304.5z" />
<glyph unicode="1" d="M213 1294v90q63 16 122.5 44t110.5 71h99v-1376h172v-123h-500v123h180v1188z" />
<glyph unicode="2" d="M98 0v123q33 109 86.5 204t112.5 180t120.5 164t111 155.5t80 154.5t30.5 162q0 117 -51 175t-127 58q-88 0 -146.5 -72.5t-68.5 -238.5h-135q6 125 35.5 209t76.5 134t106.5 70.5t127.5 20.5q145 0 237 -96t92 -281q0 -92 -25.5 -165.5t-68.5 -142.5t-99 -136.5 t-117.5 -148t-124 -179t-118.5 -227.5h562v-123h-697z" />
<glyph unicode="3" d="M86 352h135q10 -121 62.5 -185.5t150.5 -64.5q37 0 72 19.5t62.5 58.5t45 97.5t17.5 134.5q0 92 -19.5 152.5t-60.5 96t-104.5 50t-151.5 14.5v123q82 0 141.5 12t97 43t55 86t17.5 141q0 133 -47 189.5t-125 56.5q-47 0 -79.5 -18.5t-54 -48t-31 -66.5t-11.5 -76 l-135 17q6 66 27.5 123t58.5 100t90 67.5t125 24.5q61 0 120.5 -21.5t105.5 -66.5t75 -112.5t29 -159.5q0 -158 -56.5 -245t-136.5 -103v-5q61 -20 103.5 -58t68 -87t35.5 -106.5t10 -116.5q0 -115 -30.5 -197t-81 -136t-115 -79.5t-133.5 -25.5q-74 0 -134.5 27.5 t-104.5 77.5t-68.5 118.5t-24.5 148.5z" />
<glyph unicode="4" d="M49 336v70l406 1073h215v-1020h153v-123h-153v-336h-148v336h-473zM188 459h334v884h-4z" />
<glyph unicode="5" d="M115 332l135 12q4 -41 16.5 -83t34 -78t55 -58.5t82.5 -22.5q96 0 158.5 97.5t62.5 289.5q0 104 -16 174t-44 112t-64.5 59.5t-77.5 17.5q-63 0 -115.5 -42t-71.5 -101l-114 20l49 750h520l-12 -123h-389l-29 -451q39 33 89 51.5t108 18.5q63 0 120.5 -30t100.5 -90 t68.5 -150.5t25.5 -210.5q0 -127 -28.5 -223.5t-78 -161t-115 -97t-139.5 -32.5q-80 0 -140 27.5t-101 75.5t-63.5 112.5t-26.5 136.5z" />
<glyph unicode="6" d="M106 659q0 223 26 382t74 260.5t116.5 149.5t156.5 48q72 0 122 -20.5t84 -58.5t54.5 -91t30.5 -117l-135 -8q-8 55 -25.5 89t-40 52.5t-48 24.5t-46.5 6q-98 0 -156.5 -141t-60.5 -451q45 47 103.5 80t123.5 33q61 0 119 -23.5t102 -78t70.5 -141.5t26.5 -212 q0 -217 -85 -339.5t-233 -122.5q-96 0 -166.5 31.5t-117.5 108.5t-71 208t-24 331zM254 508q0 -113 14.5 -189.5t41 -125t65.5 -70t88 -21.5q43 0 79 17.5t60.5 57.5t38.5 105.5t14 161.5q0 98 -15 163t-41 101.5t-59.5 51t-68.5 14.5q-72 0 -126 -39t-91 -88v-139z" />
<glyph unicode="7" d="M123 1356v123h663v-78l-430 -1401h-155l430 1356h-508z" />
<glyph unicode="8" d="M90 373q0 137 65.5 237.5t172.5 175.5q-98 78 -151.5 164t-53.5 217q0 74 25.5 134.5t70.5 104.5t105.5 68.5t130.5 24.5t130 -24.5t105 -68.5t70.5 -104.5t25.5 -134.5q0 -131 -53 -217t-151 -164q106 -76 171.5 -176t65.5 -237q0 -80 -24.5 -151.5t-71.5 -125 t-114.5 -85t-153.5 -31.5t-154 31.5t-115 85t-71.5 125t-24.5 151.5zM238 367q0 -45 12 -92.5t38.5 -85t67.5 -62.5t99 -25q57 0 98 25t67.5 62.5t39 85t12.5 92.5q0 59 -17.5 108t-47 90t-68.5 76t-84 68q-45 -33 -84 -68t-69 -76t-47 -90t-17 -108zM270 1184 q0 -113 50.5 -195t134.5 -133q84 51 134 133t50 195q0 35 -11.5 69.5t-34 62t-57 44t-81.5 16.5t-82 -16.5t-57.5 -44t-34 -62t-11.5 -69.5z" />
<glyph unicode="9" d="M106 1036q0 217 85 340t233 123q96 0 167 -31.5t118 -108.5t70.5 -209t23.5 -331q0 -223 -25.5 -381.5t-74 -260t-117 -149.5t-156.5 -48q-72 0 -122 20t-84 58t-54 90.5t-31 117.5l135 8q8 -55 25.5 -88.5t40 -52t47.5 -25t47 -6.5q98 0 155.5 141.5t61.5 450.5 q-45 -47 -103.5 -79.5t-123.5 -32.5q-61 0 -118.5 23.5t-101.5 77.5t-71 140t-27 213zM254 1034q0 -98 15.5 -162.5t41 -101.5t59 -51t68.5 -14q72 0 126 38.5t91 87.5v140q0 113 -14 189.5t-41 124.5t-65.5 69.5t-88.5 21.5q-43 0 -78.5 -17.5t-60 -57t-39 -105.5 t-14.5 -162z" />
<glyph unicode=":" horiz-adv-x="454" d="M141 0v193h172v-193h-172zM141 557v193h172v-193h-172z" />
<glyph unicode=";" horiz-adv-x="454" d="M129 -307l94 307h-82v193h172v-205l-123 -295h-61zM141 557v193h172v-193h-172z" />
<glyph unicode="&#x3c;" horiz-adv-x="1228" d="M82 481v103l1065 475v-141l-864 -386l864 -385v-141z" />
<glyph unicode="=" horiz-adv-x="1228" d="M82 246v135h1065v-135h-1065zM82 684v135h1065v-135h-1065z" />
<glyph unicode="&#x3e;" horiz-adv-x="1228" d="M82 6v141l864 385l-864 386v141l1065 -475v-103z" />
<glyph unicode="?" horiz-adv-x="796" d="M131 1225q6 57 26.5 107t55.5 87t83 58.5t110 21.5q51 0 98 -17.5t83 -51t57.5 -85t21.5 -120.5q0 -86 -20.5 -150.5t-52.5 -118t-69 -100.5t-68.5 -96t-52 -107.5t-20.5 -132.5v-82h-115v103q0 119 39 200.5t86 152.5t86 146.5t39 184.5q0 80 -38 115.5t-81 35.5 q-35 0 -60.5 -16.5t-42.5 -42t-28.5 -56t-13.5 -61.5zM227 0v193h172v-193h-172z" />
<glyph unicode="@" horiz-adv-x="1638" d="M94 743q0 158 60.5 295.5t163 239.5t240.5 161.5t294 59.5q141 0 267 -47t220.5 -130t149.5 -197.5t55 -252.5q0 -131 -47 -239.5t-118.5 -186t-155.5 -120.5t-156 -43q-53 0 -90 33.5t-43 101.5l-4 -2q-45 -49 -110.5 -91t-139.5 -42q-66 0 -120 25.5t-92 68.5 t-59.5 101.5t-21.5 123.5q0 104 34 206.5t97.5 184.5t151.5 132.5t196 50.5q72 0 132.5 -37t97.5 -123l45 127h129l-176 -578q-10 -29 -15.5 -58.5t-5.5 -51.5q0 -51 45 -52q55 0 109.5 41t97.5 106.5t69.5 147.5t26.5 164q0 121 -47 218.5t-125 165t-180 103t-215 35.5 q-135 0 -248.5 -51t-197.5 -139t-131.5 -204t-47.5 -247q0 -139 49.5 -257.5t135.5 -205.5t201.5 -136.5t248.5 -49.5q145 0 281.5 64.5t222.5 179.5h129q-49 -84 -117.5 -150.5t-151.5 -112.5t-176.5 -70.5t-191.5 -24.5q-162 0 -302 59t-242.5 162.5t-162 243t-59.5 298.5 zM543 616q0 -88 47 -143t125 -55q68 0 125 44t100 110.5t67.5 142.5t24.5 137q0 37 -14 71.5t-37 61.5t-52.5 43t-62.5 16q-72 0 -131 -41.5t-102 -105t-66.5 -139.5t-23.5 -142z" />
<glyph unicode="A" d="M18 0l326 1479h221l326 -1479h-160l-88 438h-377l-88 -438h-160zM289 573h332l-164 795h-4z" />
<glyph unicode="B" horiz-adv-x="1024" d="M135 0v1479h393q166 0 257.5 -100.5t91.5 -264.5q0 -111 -53.5 -202t-172.5 -126v-4q135 -35 196.5 -134t61.5 -238q0 -207 -115.5 -308.5t-359.5 -101.5h-299zM295 135h160q145 0 220 65.5t75 209.5q0 147 -69 223t-226 76h-160v-574zM295 844h90q174 0 253 59.5 t79 210.5q0 127 -60.5 178t-201.5 51h-160v-499z" />
<glyph unicode="C" horiz-adv-x="1024" d="M94 739q0 209 30 354.5t85 235.5t135 130t178 40q166 0 263.5 -114.5t115.5 -352.5h-160q-16 176 -70.5 254t-148.5 78q-70 0 -121 -33t-83.5 -106.5t-48 -193.5t-15.5 -292t15.5 -291.5t48 -193.5t84 -106.5t120.5 -32.5q55 0 99.5 20.5t75 65.5t47 116.5t18.5 174.5 h160q-4 -248 -106.5 -380t-293.5 -132q-98 0 -178 39.5t-135 130t-85 235.5t-30 354z" />
<glyph unicode="D" horiz-adv-x="1024" d="M135 0v1479h275q117 0 209 -36t156.5 -121t99 -227.5t34.5 -355.5t-34.5 -355t-99 -227t-157 -121t-208.5 -36h-275zM295 135h86q88 0 156.5 23.5t115.5 89t72 183.5t25 308t-25 308t-72 183.5t-115.5 89t-156.5 23.5h-86v-1208z" />
<glyph unicode="E" d="M135 0v1479h676v-136h-516v-503h381v-135h-381v-570h541v-135h-701z" />
<glyph unicode="F" horiz-adv-x="796" d="M135 0v1479h635v-136h-475v-503h356v-135h-356v-705h-160z" />
<glyph unicode="G" horiz-adv-x="1024" d="M94 739q0 209 30 354.5t85 235.5t133 130t176 40q102 0 173 -41t117 -107.5t69.5 -152.5t31.5 -174h-159q-4 72 -18.5 134.5t-41 108.5t-68.5 71.5t-104 25.5q-68 0 -117 -32t-81.5 -105.5t-49 -193.5t-16.5 -294t16.5 -293.5t49 -193.5t82 -105.5t116.5 -31.5 q113 0 172.5 59t59.5 174v209h-201v135h360v-692h-102l-21 111q-47 -61 -111.5 -96t-156.5 -35q-98 0 -176 39.5t-133 130t-85 235.5t-30 354z" />
<glyph unicode="H" horiz-adv-x="1024" d="M135 0v1479h160v-639h434v639h160v-1479h-160v705h-434v-705h-160z" />
<glyph unicode="I" horiz-adv-x="454" d="M147 0v1479h160v-1479h-160z" />
<glyph unicode="J" horiz-adv-x="569" d="M-12 -8l12 139q45 -16 92 -16q98 0 140 47t42 170v1147h160v-1110q0 -115 -20.5 -190t-63.5 -119t-112.5 -62t-167.5 -18q-16 0 -38 4z" />
<glyph unicode="K" d="M115 0v1479h159v-754h5l413 754h172l-286 -516l340 -963h-173l-274 799h-4l-193 -344v-455h-159z" />
<glyph unicode="L" horiz-adv-x="796" d="M135 0v1479h160v-1344h479v-135h-639z" />
<glyph unicode="M" horiz-adv-x="1251" d="M115 0v1479h254l258 -1119h4l252 1119h254v-1479h-148v1356h-4l-307 -1356h-105l-307 1356h-4v-1356h-147z" />
<glyph unicode="N" horiz-adv-x="1024" d="M115 0v1479h250l380 -1090h5v1090h159v-1479h-172l-458 1286h-5v-1286h-159z" />
<glyph unicode="O" horiz-adv-x="1024" d="M94 739q0 207 30 351.5t85 235.5t132 132t171 41t171 -41t132 -132t85 -235.5t30 -351.5t-30 -351t-85 -235.5t-132 -132t-171 -40.5t-171 40.5t-132 132t-85 235.5t-30 351zM254 739q0 -188 20.5 -309t55.5 -191.5t82 -97t100 -26.5t100 26.5t82 97t55.5 191.5t20.5 309 t-20.5 309t-55.5 192t-82 97.5t-100 26.5t-100 -26.5t-82 -97.5t-55.5 -191.5t-20.5 -309.5z" />
<glyph unicode="P" d="M115 0v1479h348q88 0 160.5 -29t125 -82t80 -128t27.5 -167t-27.5 -167t-80 -128t-125 -81.5t-160.5 -28.5h-189v-668h-159zM274 803h168q121 0 187.5 65.5t66.5 204.5t-66.5 204.5t-187.5 65.5h-168v-540z" />
<glyph unicode="Q" horiz-adv-x="1024" d="M94 739q0 207 30 351.5t85 235.5t132 132t171 41t171 -41t132 -132t85 -235.5t30 -351.5t-30 -350t-85 -235q29 -45 66 -85t90 -44v-140q-88 4 -144.5 51.5t-97.5 116.5q-47 -39 -101.5 -56t-115.5 -17q-94 0 -171 40.5t-132 132t-85 235.5t-30 351zM254 739 q0 -188 20.5 -309t55.5 -191.5t82 -97t100 -26.5q41 0 77 14t66 51q-47 66 -110 107v131q53 -16 95 -48t77 -73q27 72 40 179.5t13 262.5q0 188 -20.5 309t-55.5 192t-82 97.5t-100 26.5t-100 -26.5t-82 -97.5t-55.5 -191.5t-20.5 -309.5z" />
<glyph unicode="R" horiz-adv-x="1024" d="M135 0v1479h357q88 0 162.5 -26t129 -75t84 -119.5t29.5 -162.5q0 -125 -57.5 -222.5t-180.5 -140.5l250 -733h-168l-237 700l-209 -8v-692h-160zM295 831h139q172 0 237.5 66t65.5 190q0 125 -65.5 190.5t-237.5 65.5h-139v-512z" />
<glyph unicode="S" d="M74 397h147q4 -131 64.5 -206.5t179.5 -75.5q100 0 159.5 62.5t59.5 180.5q0 84 -44 146.5t-109.5 116t-143.5 103.5t-143.5 111.5t-109.5 137.5t-44 182q0 78 25.5 141.5t73 108.5t113 69.5t144.5 24.5q160 0 257.5 -103.5t107.5 -297.5h-147q-4 57 -18.5 105t-42.5 84 t-68.5 56.5t-98.5 20.5q-92 0 -147.5 -54.5t-55.5 -140.5q0 -84 44.5 -143t110 -110.5t143 -100.5t143 -111.5t109.5 -145.5t44 -202q0 -178 -97 -277t-281 -99q-86 0 -156 30.5t-118 86t-73.5 132t-27.5 168.5z" />
<glyph unicode="T" horiz-adv-x="796" d="M14 1343v136h766v-136h-303v-1343h-160v1343h-303z" />
<glyph unicode="U" horiz-adv-x="1024" d="M135 389v1090h160v-1086q0 -55 9 -106t33.5 -89t66.5 -60.5t108 -22.5t108 22.5t66.5 60.5t33.5 89t9 106v1086h160v-1090q0 -90 -21.5 -164.5t-67.5 -129t-117 -85t-171 -30.5t-171 30.5t-117 85t-67.5 129t-21.5 164.5z" />
<glyph unicode="V" d="M33 1479h160l260 -1172h4l260 1172h160l-349 -1479h-147z" />
<glyph unicode="W" horiz-adv-x="1251" d="M12 1479h148l176 -1155h4l221 1155h131l230 -1155h4l164 1155h147l-238 -1479h-135l-233 1161h-4l-234 -1161h-135z" />
<glyph unicode="X" d="M29 0l319 786l-307 693h172l225 -525l209 525h172l-291 -693l353 -786h-172l-271 618l-237 -618h-172z" />
<glyph unicode="Y" d="M33 1479h172l254 -648l246 648h172l-340 -852v-627h-160v627z" />
<glyph unicode="Z" d="M90 0v115l533 1228h-484v136h680v-111l-549 -1233h549v-135h-729z" />
<glyph unicode="[" horiz-adv-x="569" d="M123 -205v1684h377v-82h-242v-1520h242v-82h-377z" />
<glyph unicode="\" horiz-adv-x="569" d="M-20 1499h135l475 -1519h-135z" />
<glyph unicode="]" horiz-adv-x="569" d="M70 -123h241v1520h-241v82h376v-1684h-376v82z" />
<glyph unicode="^" horiz-adv-x="1228" d="M127 604l430 875h115l430 -875h-148l-340 701l-340 -701h-147z" />
<glyph unicode="_" horiz-adv-x="1024" d="M0 -154h1024v-102h-1024v102z" />
<glyph unicode="`" horiz-adv-x="454" d="M-16 1466h159l201 -282h-102z" />
<glyph unicode="a" d="M98 254q0 98 48.5 173t123 129t162.5 88t168 52v76q0 88 -41 139.5t-113 51.5q-43 0 -74.5 -19.5t-54 -49.5t-36 -66.5t-19.5 -73.5l-135 20q10 63 34.5 119.5t63.5 99.5t92.5 67.5t124.5 24.5q147 0 226.5 -80.5t79.5 -222.5v-594q0 -72 7 -121t19 -67h-153l-19 90 q-23 -23 -51.5 -42t-59 -34.5t-61.5 -24.5t-55 -9q-125 0 -201 73.5t-76 200.5zM246 266q0 -76 35.5 -120t115.5 -44q59 0 110.5 35t92.5 76v360q-51 -16 -112.5 -41.5t-116 -63.5t-90 -88t-35.5 -114z" />
<glyph unicode="b" d="M135 0q12 47 18.5 114.5t6.5 172.5v1192h147v-492q37 37 87 67.5t110 30.5q63 0 118.5 -28.5t97.5 -94t66.5 -171t24.5 -259.5t-24.5 -259t-66.5 -170.5t-97.5 -94t-118.5 -28.5q-72 0 -126 32.5t-95 89.5l-33 -102h-115zM307 205q35 -47 78 -75t78 -28q45 0 83 21.5 t63.5 71t40 132.5t14.5 205q0 123 -13.5 206t-38 132.5t-61.5 71t-84 21.5q-49 0 -88 -31t-72 -64v-663z" />
<glyph unicode="c" horiz-adv-x="796" d="M72 532q0 289 78.5 421t246.5 132q145 0 217 -89t95 -246h-144q-10 121 -55 167t-113 46q-47 0 -80.5 -17.5t-55 -66t-32 -132t-10.5 -215.5q0 -133 10.5 -216t32 -131t55 -65.5t80.5 -17.5q35 0 62.5 10.5t49 37t36 71.5t24.5 115h144q-10 -78 -33 -143.5t-61.5 -112.5 t-94 -73.5t-127.5 -26.5q-168 0 -246.5 132t-78.5 420z" />
<glyph unicode="d" d="M98 532q0 154 24.5 259.5t66.5 171t97.5 94t119.5 28.5q59 0 109 -30.5t87 -67.5v492h148v-1192q0 -104 6 -172t18 -115h-139l-6 102h-4q-39 -57 -93.5 -89.5t-125.5 -32.5q-63 0 -119 28.5t-98 94t-66.5 171t-24.5 258.5zM246 532q0 -123 14 -205.5t40 -132t62.5 -71 t83.5 -21.5q35 0 78 28t78 75v663q-33 33 -71.5 64t-88.5 31q-47 0 -83.5 -21.5t-61.5 -71t-38 -132.5t-13 -206z" />
<glyph unicode="e" horiz-adv-x="796" d="M72 532q0 289 78.5 421t246.5 132q84 0 145.5 -35.5t101.5 -102t59.5 -161t19.5 -208.5v-70h-504v-59q0 -98 11.5 -164t36 -107t61.5 -58.5t90 -17.5q43 0 72.5 17.5t51 46.5t35 64.5t19.5 72.5l139 -16q-8 -59 -34.5 -114.5t-69.5 -98.5t-101.5 -68.5t-132.5 -25.5 q-168 0 -246.5 132t-78.5 420zM219 631h356q-4 172 -40.5 252t-137.5 80q-41 0 -72.5 -16.5t-55 -54.5t-37 -102.5t-13.5 -158.5z" />
<glyph unicode="f" horiz-adv-x="569" d="M37 942v123h164v217q0 109 48 163t169 54q29 0 58.5 -4t55.5 -8v-115q-35 16 -79 17q-53 0 -79 -31t-26 -82v-211h172v-123h-172v-942h-147v942h-164z" />
<glyph unicode="g" d="M98 -119q0 72 42 127t114 86q-47 16 -81 53t-34 91q0 59 43 95t97 46q-31 23 -55.5 57.5t-40 75.5t-23.5 86t-8 86q0 193 83.5 297t225.5 104q53 0 110.5 -23.5t83.5 -74.5q25 43 69 70.5t112 27.5v-135q-12 4 -22.5 4h-20.5q-29 0 -50.5 -11t-42.5 -30q16 -49 24.5 -94 t8.5 -110q0 -100 -21.5 -172t-60.5 -118t-91 -68.5t-114 -22.5q-25 0 -49 4t-49 4q-18 -4 -46 -21.5t-28 -48.5q0 -29 21.5 -45t56.5 -26.5t82 -18.5t98 -18q57 -12 110.5 -29.5t93.5 -46.5t63.5 -72t23.5 -108q0 -53 -24.5 -98.5t-70.5 -79t-113.5 -53t-151.5 -19.5 q-182 0 -273.5 62.5t-91.5 166.5zM233 -88q0 -66 56.5 -108t177.5 -42q123 0 172 43t49 109q0 37 -30.5 59.5t-76.5 38t-101.5 25.5t-102.5 20q-66 -29 -105 -64.5t-39 -80.5zM287 707q0 -152 45 -210.5t110 -58.5q33 0 60.5 13.5t49 45t34 83t12.5 127.5t-12.5 127 t-34 82.5t-49 45t-60.5 13.5q-66 0 -110.5 -58t-44.5 -210z" />
<glyph unicode="h" d="M147 0v1479h148v-531q47 53 113.5 95t119.5 42q111 0 172.5 -65.5t61.5 -212.5v-807h-148v786q0 92 -28.5 134.5t-87.5 42.5q-53 0 -103.5 -35t-99.5 -97v-831h-148z" />
<glyph unicode="i" horiz-adv-x="454" d="M154 0v1065h147v-1065h-147zM154 1307v172h147v-172h-147z" />
<glyph unicode="j" horiz-adv-x="454" d="M8 -217q14 -4 26.5 -6t22.5 -2q49 0 76 29.5t27 101.5v1159h147v-1171q0 -133 -53 -187.5t-164 -54.5q-20 0 -39.5 2t-42.5 6v123zM160 1307v172h147v-172h-147z" />
<glyph unicode="k" horiz-adv-x="796" d="M135 0v1479h148v-934h4l282 520h152l-197 -340l246 -725h-152l-192 578h-4l-139 -263v-315h-148z" />
<glyph unicode="l" horiz-adv-x="454" d="M154 0v1479h147v-1479h-147z" />
<glyph unicode="m" horiz-adv-x="1366" d="M164 0v1065h135v-117q43 51 106.5 94t141.5 43q63 0 116.5 -37.5t73.5 -97.5q45 49 107.5 92t140.5 43q104 0 159.5 -65.5t55.5 -179.5v-840h-147v819q0 84 -26 114t-85 30q-68 0 -111 -38t-75 -73v-852h-148v819q0 84 -28.5 114t-87.5 30q-35 0 -62 -10.5t-48.5 -27 t-38.5 -36t-32 -37.5v-852h-147z" />
<glyph unicode="n" d="M147 0v1065h140v-117q53 53 120.5 95t120.5 42q111 0 172.5 -65.5t61.5 -212.5v-807h-148v786q0 92 -28.5 134.5t-87.5 42.5q-53 0 -103.5 -35t-99.5 -97v-831h-148z" />
<glyph unicode="o" horiz-adv-x="796" d="M72 532q0 289 78.5 421t246.5 132t247 -132t79 -421t-79 -420.5t-247 -131.5t-246.5 131.5t-78.5 420.5zM219 532q0 -133 10.5 -216t32 -131t55 -65.5t80.5 -17.5t81 17.5t55.5 65.5t31.5 131t10 216q0 131 -10 215t-31.5 132.5t-55.5 66t-81 17.5t-80.5 -17.5t-55 -66 t-32 -132.5t-10.5 -215z" />
<glyph unicode="p" d="M160 -348v1413h123v-102h4q37 57 91 89.5t126 32.5q63 0 118.5 -28.5t97.5 -94t66.5 -171t24.5 -259.5t-24.5 -259t-66.5 -170.5t-97.5 -94t-118.5 -28.5q-59 0 -109.5 30.5t-87.5 67.5v-426h-147zM307 197q33 -33 72 -64t88 -31q47 0 84 21.5t61.5 71t38 132.5t13.5 205 q0 123 -14.5 206t-40 132.5t-63.5 71t-83 21.5q-35 0 -78 -28t-78 -75v-663z" />
<glyph unicode="q" d="M98 532q0 154 24.5 259.5t66.5 171t97.5 94t119.5 28.5q72 0 126 -32.5t91 -89.5h4v102h123v-1413h-148v426q-37 -37 -87 -67.5t-109 -30.5q-63 0 -119 28.5t-98 94t-66.5 171t-24.5 258.5zM246 532q0 -123 13 -205.5t38 -132t61.5 -71t83.5 -21.5q49 0 88 31t72 64v663 q-35 47 -78 75t-78 28q-47 0 -83.5 -21.5t-62.5 -71t-40 -132.5t-14 -206z" />
<glyph unicode="r" horiz-adv-x="569" d="M135 0v1065h148v-129h4q33 49 62.5 77.5t61 45t67.5 21.5t79 5v-139q-41 0 -78 -8t-70.5 -29.5t-64.5 -57.5t-61 -93v-758h-148z" />
<glyph unicode="s" horiz-adv-x="796" d="M78 262l135 29q12 -35 28.5 -69t40 -60.5t54.5 -43t72 -16.5q31 0 58.5 13.5t49 35t33.5 51t12 62.5q0 61 -33.5 105.5t-83 80t-109 70.5t-108.5 77t-82.5 97.5t-33.5 132.5q0 51 20.5 98.5t57 83t87 56t111.5 20.5q123 0 196.5 -66.5t100.5 -187.5l-123 -36 q-10 35 -23.5 65.5t-34 53t-51 36t-75.5 13.5q-53 0 -86 -37t-33 -90q0 -55 34 -94.5t83 -74t108.5 -69.5t108.5 -79t83 -103.5t34 -141.5q0 -63 -21.5 -116.5t-60.5 -93t-92.5 -62t-116.5 -22.5q-145 0 -223 73.5t-117 208.5z" />
<glyph unicode="t" horiz-adv-x="569" d="M16 942v123h144v356h147v-356h197v-123h-197v-745q0 -47 25.5 -77t81.5 -30q23 0 47 7t43 14v-111q-31 -10 -61.5 -15t-77.5 -5q-104 0 -154.5 53t-50.5 176v733h-144z" />
<glyph unicode="u" d="M147 258v807h148v-786q0 -92 28.5 -134.5t88.5 -42.5q53 0 103 35t99 96v832h148v-1065h-139v117q-53 -53 -121 -95t-121 -42q-111 0 -172.5 65.5t-61.5 212.5z" />
<glyph unicode="v" horiz-adv-x="796" d="M37 1065h147l213 -918h4l209 918h148l-262 -1065h-197z" />
<glyph unicode="w" horiz-adv-x="1138" d="M37 1065h139l152 -782h4l172 782h139l176 -782h4l140 782h139l-221 -1065h-123l-185 827h-4l-184 -827h-123z" />
<glyph unicode="x" horiz-adv-x="681" d="M2 0l246 553l-246 512h152l176 -373l155 373h152l-229 -512l270 -553h-152l-192 418l-180 -418h-152z" />
<glyph unicode="y" horiz-adv-x="681" d="M4 1065h152l200 -815h4l164 815h152l-244 -1042q-41 -176 -121 -273.5t-215 -97.5h-76v123h46q88 0 143 60.5t78 172.5z" />
<glyph unicode="z" horiz-adv-x="681" d="M47 0v111l410 831h-377v123h553v-98l-422 -844h422v-123h-586z" />
<glyph unicode="{" horiz-adv-x="569" d="M33 596v82q63 0 91 37t28 135v453q0 98 53 147t139 49h131v-82h-106q-82 0 -82 -106v-482q0 -47 -14.5 -81.5t-36 -57t-50 -35t-55.5 -16.5v-4q27 -4 55.5 -16.5t50 -35t36 -57t14.5 -82.5v-481q0 -106 82 -106h106v-82h-131q-86 0 -139 49t-53 147v453q0 98 -28 135 t-91 37z" />
<glyph unicode="|" horiz-adv-x="454" d="M160 -20v1519h135v-1519h-135z" />
<glyph unicode="}" horiz-adv-x="569" d="M94 -143h107q82 0 82 106v481q0 47 14 82t35.5 57.5t49.5 35t56 16.5v4q-29 4 -56.5 16.5t-49 35t-35.5 57t-14 81.5v482q0 106 -82 106h-107v82h131q86 0 139.5 -49t53.5 -147v-453q0 -98 27.5 -135t91.5 -37v-82q-63 0 -91 -37t-28 -135v-453q0 -98 -53.5 -147 t-139.5 -49h-131v82z" />
<glyph unicode="~" horiz-adv-x="1228" d="M123 489q18 33 42.5 66t57.5 58.5t74 41t94 15.5t113.5 -19.5t122.5 -48.5q59 -25 115.5 -48.5t99.5 -23.5q63 0 106 46.5t80 101.5l78 -103q-18 -33 -43 -65.5t-57.5 -58t-73.5 -41t-94 -15.5t-113.5 19.5t-122.5 48.5q-59 25 -115.5 48.5t-99.5 23.5q-63 0 -106 -46.5 t-80 -101.5z" />
<glyph unicode="&#xa1;" horiz-adv-x="681" d="M256 -414l33 1041h106l33 -1041h-172zM256 872v193h172v-193h-172z" />
<glyph unicode="&#xa2;" d="M125 553q0 289 79 421t247 132q37 0 71 -6l51 231h99l-60 -266q63 -41 99.5 -116t50.5 -179h-144q-8 94 -40 143l-177 -784q20 -6 50 -6q35 0 62.5 10t49 37t35.5 72t25 114h143q-10 -78 -32.5 -143.5t-61.5 -112.5t-94.5 -73.5t-126.5 -26.5q-47 0 -76 10l-56 -243h-98 l64 278q-82 55 -121 179t-39 329zM272 553q0 -141 11.5 -225t35.5 -129l177 778q-18 6 -45 6q-47 0 -81 -17.5t-55.5 -65.5t-32 -132t-10.5 -215z" />
<glyph unicode="&#xa3;" d="M66 -20v139q51 25 84.5 64.5t54 87.5t29 102.5t8.5 105.5q0 59 -6.5 102.5t-10.5 94.5h-159v123h135q-16 78 -37 160.5t-21 168.5q0 98 25 168t65.5 115t94 66.5t112.5 21.5q98 0 164 -36t105 -95t56 -136t21 -159h-135q-8 63 -21.5 119.5t-36 96.5t-56 63.5t-82.5 23.5 q-78 0 -121 -48t-43 -177q0 -92 20.5 -179t36.5 -173h217v-123h-192q4 -41 10 -84t6 -88q0 -68 -10 -134.5t-39 -131.5q43 -49 92 -84t109 -35q31 0 58.5 11t48 42t32.5 83t12 134h135q0 -119 -16 -197.5t-51 -126t-89.5 -66.5t-127.5 -19q-37 0 -74 12t-70.5 33.5t-63.5 50 t-50 59.5q-41 -55 -95.5 -100t-123.5 -55z" />
<glyph unicode="&#xa4;" d="M12 379l94 100q-43 43 -66.5 116t-23.5 144q0 72 23.5 144.5t66.5 115.5l-94 101l86 86l95 -96q53 49 122.5 70.5t139.5 21.5t139.5 -21.5t122.5 -70.5l94 96l86 -86l-94 -101q43 -43 66.5 -115.5t23.5 -144.5t-23.5 -144.5t-66.5 -115.5l94 -100l-86 -86l-94 96 q-53 -49 -123 -70.5t-139 -21.5q-70 0 -139.5 21.5t-122.5 70.5l-95 -96zM160 739q0 -68 21.5 -125t60.5 -98t93 -64.5t120 -23.5t120 23.5t93 64.5t60.5 98.5t21.5 124.5q0 68 -21.5 125.5t-60.5 98.5t-93.5 64.5t-119.5 23.5q-66 0 -120 -23.5t-93 -64.5t-60.5 -98.5 t-21.5 -125.5z" />
<glyph unicode="&#xa5;" d="M39 1479h147l273 -680l264 680h147l-221 -557h209v-123h-258l-70 -172v-17h328v-123h-328v-487h-147v487h-328v123h328v17l-70 172h-258v123h209z" />
<glyph unicode="&#xa6;" horiz-adv-x="454" d="M160 -20v581h135v-581h-135zM160 918v581h135v-581h-135z" />
<glyph unicode="&#xa7;" horiz-adv-x="1024" d="M131 821q0 47 20.5 85t53.5 63.5t76 40t88 14.5q-57 55 -90 116.5t-33 141.5q0 43 16.5 82t48 69.5t78.5 48t107 17.5q92 0 169.5 -48t137.5 -116l-98 -78q-16 23 -38 46.5t-46.5 42t-53 31t-55.5 12.5q-72 0 -101.5 -32t-29.5 -89q0 -45 38 -96.5t95 -107.5 t122.5 -116.5t123 -124t95.5 -130t38 -134.5q0 -104 -64.5 -163.5t-164.5 -59.5q47 -53 84.5 -117.5t37.5 -142.5q0 -53 -20.5 -99.5t-55 -79t-80.5 -51t-100 -18.5q-109 0 -187.5 44t-141.5 128l98 78q35 -59 95.5 -99t131.5 -40q53 0 89 39.5t36 91.5q0 53 -39 108 t-96 114.5t-124.5 121t-125 128t-96.5 136.5t-39 143zM266 811q0 -35 43 -99.5t103.5 -129t126 -112.5t110.5 -48q47 0 78 38t31 83q0 43 -43 109.5t-102.5 130t-123 109.5t-104.5 46q-59 0 -89 -35t-30 -92z" />
<glyph unicode="&#xa8;" horiz-adv-x="454" d="M25 1204v209h135v-209h-135zM295 1204v209h135v-209h-135z" />
<glyph unicode="&#xa9;" horiz-adv-x="1638" d="M53 741q0 162 61.5 300.5t166 239.5t244 159.5t296.5 58.5q156 0 295 -58.5t243.5 -159.5t165 -239.5t60.5 -300.5q0 -164 -60.5 -303t-165 -240.5t-243.5 -159.5t-295 -58q-158 0 -297 58t-243.5 159.5t-166 241t-61.5 302.5zM201 741q0 -137 47 -253.5t131 -202.5 t196.5 -134.5t245.5 -48.5q131 0 244 48.5t195.5 134.5t130 202.5t47.5 253.5q0 135 -47.5 251t-130 201t-195.5 134t-244 49q-133 0 -245.5 -49t-196.5 -134t-131 -200.5t-47 -251.5zM393 741q0 100 31 186.5t88 150t140 98t188 34.5q72 0 136 -20.5t115.5 -60t85 -98 t46.5 -134.5h-129q-16 82 -83 136t-169 54q-74 0 -130.5 -26.5t-94 -72.5t-57 -108.5t-19.5 -134.5t20.5 -135t60.5 -112t96 -78t128 -29q102 0 167.5 57.5t80.5 145.5h131q-16 -74 -51 -134.5t-84.5 -102.5t-112 -65.5t-131.5 -23.5q-102 0 -186.5 37t-143.5 100.5 t-91 149.5t-32 186z" />
<glyph unicode="&#xaa;" horiz-adv-x="544" d="M41 1008q0 59 31.5 104t78 77t100.5 53.5t101 31.5v37q0 49 -19.5 73.5t-66.5 24.5q-53 0 -77.5 -33t-32.5 -76l-95 13q12 76 61.5 131t141.5 55q98 0 148.5 -48t50.5 -134v-356q0 -41 4 -72t12 -41h-106l-13 37q-23 -25 -64.5 -37t-74.5 -12q-82 0 -131 45t-49 127z M152 1008q0 -45 18 -63.5t66 -18.5q39 0 69.5 20.5t46.5 44.5v185q-29 -10 -63.5 -25.5t-65 -37t-51 -48.5t-20.5 -57z" />
<glyph unicode="&#xab;" horiz-adv-x="1024" d="M168 532l254 316h139l-262 -316l262 -315h-139zM463 532l254 316h139l-262 -316l262 -315h-139z" />
<glyph unicode="&#xac;" horiz-adv-x="1228" d="M82 684v135h1065v-573h-135v438h-930z" />
<glyph unicode="&#xad;" horiz-adv-x="681" d="M88 465v135h504v-135h-504z" />
<glyph unicode="&#xae;" horiz-adv-x="1638" d="M53 741q0 162 61.5 300.5t166 239.5t244 159.5t296.5 58.5q156 0 295 -58.5t243.5 -159.5t165 -239.5t60.5 -300.5q0 -164 -60.5 -303t-165 -240.5t-243.5 -159.5t-295 -58q-158 0 -297 58t-243.5 159.5t-166 241t-61.5 302.5zM201 741q0 -137 47 -253.5t131 -202.5 t196.5 -134.5t245.5 -48.5q131 0 244 48.5t195.5 134.5t130 202.5t47.5 253.5q0 135 -47.5 251t-130 201t-195.5 134t-244 49q-133 0 -245.5 -49t-196.5 -134t-131 -200.5t-47 -251.5zM530 291v889h338q307 0 308 -252q0 -59 -18.5 -103.5t-48.5 -73t-69 -45t-79 -22.5 l239 -393h-162l-235 389h-137v-389h-136zM666 795h147q61 0 104.5 5t71 20.5t39.5 42t12 71.5q0 68 -44 99.5t-150 31.5h-180v-270z" />
<glyph unicode="&#xaf;" horiz-adv-x="454" d="M-45 1257v99h545v-99h-545z" />
<glyph unicode="&#xb0;" horiz-adv-x="819" d="M106 1196q0 61 24 116.5t65 97.5t96 65.5t119 23.5q63 0 118.5 -23.5t96.5 -65.5t64.5 -97.5t23.5 -116.5t-23.5 -116.5t-64.5 -97.5t-96.5 -65.5t-118.5 -23.5t-118.5 23.5t-96.5 65.5t-65 97.5t-24 116.5zM213 1196q0 -43 15.5 -81t41 -66.5t61.5 -45t79 -16.5 t78.5 16.5t61 45t41 66.5t15.5 81t-15.5 81t-41 66.5t-61 45t-78.5 16.5t-79 -16.5t-61.5 -45t-41 -66.5t-15.5 -81z" />
<glyph unicode="&#xb1;" horiz-adv-x="1228" d="M82 0v135h1065v-135h-1065zM82 582v135h465v348h135v-348h465v-135h-465v-349h-135v349h-465z" />
<glyph unicode="&#xb2;" horiz-adv-x="544" d="M45 598v102q33 92 88 168t108.5 145.5t92.5 133t39 131.5q0 53 -23.5 84t-66.5 31q-51 0 -84 -31t-43 -123h-103q4 76 23.5 126t50.5 80t71 42t83 12q96 0 155.5 -56.5t59.5 -162.5q0 -84 -39 -155.5t-91.5 -139t-108.5 -135.5t-89 -145h332v-107h-455z" />
<glyph unicode="&#xb3;" horiz-adv-x="544" d="M37 811h110q4 -49 27 -84t88 -35q47 0 77 38t30 118q0 94 -49.5 130t-147.5 38v106q92 -2 136 29t44 127q0 53 -20.5 84t-69.5 31q-51 0 -69.5 -22.5t-20.5 -67.5h-111q0 86 47.5 141t147.5 55q39 0 78 -13t67.5 -39t47 -67t18.5 -96q0 -31 -5 -63.5t-18.5 -61.5 t-38 -51.5t-61.5 -30.5v-4q82 -27 110.5 -89t28.5 -134q0 -139 -63.5 -201.5t-159.5 -62.5q-109 0 -166 62.5t-57 162.5z" />
<glyph unicode="&#xb4;" horiz-adv-x="454" d="M111 1184l200 282h160l-258 -282h-102z" />
<glyph unicode="&#xb6;" horiz-adv-x="1024" d="M23 1081q0 106 36.5 181t96 123.5t137.5 71t160 22.5h575v-111h-143v-1540h-135v1540h-175v-1540h-135v868q-94 0 -170.5 29t-132 81t-85 121.5t-29.5 153.5z" />
<glyph unicode="&#xb7;" horiz-adv-x="454" d="M127 532q0 41 29.5 71t70.5 30t71 -30t30 -71t-30 -70.5t-71 -29.5t-70.5 29.5t-29.5 70.5z" />
<glyph unicode="&#xb8;" horiz-adv-x="454" d="M16 -410l29 91q25 -10 58.5 -19.5t74.5 -9.5q61 0 99 23.5t38 60.5q0 35 -28.5 61.5t-81.5 26.5q-25 0 -45.5 -6t-40.5 -15l-29 29l123 168h78l-94 -119l4 -4q20 12 63 12q66 0 114 -36.5t48 -110.5q0 -43 -17.5 -77t-48 -57.5t-70.5 -36.5t-85 -13q-59 0 -103.5 7 t-85.5 25z" />
<glyph unicode="&#xb9;" horiz-adv-x="544" d="M106 1360v74q74 16 138 65h88v-803h106v-98h-327v98h94v672z" />
<glyph unicode="&#xba;" horiz-adv-x="477" d="M27 1167q0 174 49 253t160 79t162 -79t51 -253t-51.5 -252.5t-161.5 -78.5q-111 0 -160 78.5t-49 252.5zM141 1167q0 -72 5.5 -117.5t16.5 -72.5t28.5 -37t44.5 -10t45 10t30.5 37t17.5 72.5t5 117.5t-5 118t-17.5 72.5t-31 37t-44.5 10.5q-27 0 -44.5 -10.5t-28.5 -37 t-16.5 -72.5t-5.5 -118z" />
<glyph unicode="&#xbb;" horiz-adv-x="1024" d="M168 217l262 315l-262 316h139l254 -316l-254 -315h-139zM463 217l262 315l-262 316h139l254 -316l-254 -315h-139z" />
<glyph unicode="&#xbc;" horiz-adv-x="1363" d="M139 1360v74q74 16 137 65h89v-803h106v-98h-328v98h95v672zM186 -20l899 1519h127l-899 -1519h-127zM784 197v92l246 598h154v-584h102v-106h-102v-197h-115v197h-285zM899 303h170v424h-4z" />
<glyph unicode="&#xbd;" horiz-adv-x="1363" d="M139 1360v74q74 16 137 65h89v-803h106v-98h-328v98h95v672zM178 -20l899 1519h127l-899 -1519h-127zM856 0v102q33 92 88 168t108.5 145.5t92.5 133t39 131.5q0 53 -23.5 84t-66.5 31q-51 0 -84 -31t-43 -123h-103q4 76 23.5 126t50.5 80t71 42t83 12q96 0 155.5 -56.5 t59.5 -162.5q0 -84 -39 -155.5t-91.5 -139.5t-108.5 -135.5t-89 -145.5h332v-106h-455z" />
<glyph unicode="&#xbe;" horiz-adv-x="1363" d="M78 811h110q4 -49 27 -84t88 -35q47 0 77 38t30 118q0 94 -49.5 130t-147.5 38v106q92 -2 136 29t44 127q0 53 -20.5 84t-69.5 31q-51 0 -69.5 -22.5t-20.5 -67.5h-111q0 86 47.5 141t147.5 55q39 0 78 -13t67.5 -39t47 -67t18.5 -96q0 -31 -5 -63.5t-18.5 -61.5 t-38 -51.5t-61.5 -30.5v-4q82 -27 110.5 -89t28.5 -134q0 -139 -63.5 -201.5t-159.5 -62.5q-109 0 -166 62.5t-57 162.5zM178 -20l899 1519h127l-899 -1519h-127zM784 197v92l246 598h154v-584h102v-106h-102v-197h-115v197h-285zM899 303h170v424h-4z" />
<glyph unicode="&#xbf;" horiz-adv-x="796" d="M131 -160q0 86 20.5 150.5t52.5 118t68.5 100.5t68.5 96t52.5 106.5t20.5 133.5v82h114v-103q0 -80 -18 -141t-46 -113.5t-60.5 -98.5t-60.5 -95t-46 -106.5t-18 -129.5q0 -80 37.5 -115.5t80.5 -35.5q33 0 59.5 16t44 42t28 56.5t14.5 61.5l123 -25q-6 -57 -27 -107 t-55.5 -87t-82.5 -58.5t-110 -21.5q-51 0 -98 17.5t-83 51t-57.5 85t-21.5 120.5zM397 872v193h172v-193h-172z" />
<glyph unicode="&#xc0;" d="M18 0l326 1479h221l326 -1479h-160l-88 438h-377l-88 -438h-160zM211 1839h159l201 -282h-102zM289 573h332l-164 795h-4z" />
<glyph unicode="&#xc1;" d="M18 0l326 1479h221l326 -1479h-160l-88 438h-377l-88 -438h-160zM289 573h332l-164 795h-4zM338 1557l200 282h160l-258 -282h-102z" />
<glyph unicode="&#xc2;" d="M18 0l326 1479h221l326 -1479h-160l-88 438h-377l-88 -438h-160zM178 1557l207 282h139l207 -282h-131l-146 209l-145 -209h-131zM289 573h332l-164 795h-4z" />
<glyph unicode="&#xc3;" d="M18 0l326 1479h221l326 -1479h-160l-88 438h-377l-88 -438h-160zM166 1577q0 33 11 69t31.5 64.5t49 48t65.5 19.5q39 0 75 -14.5t71 -30.5t65.5 -30.5t57.5 -14.5q45 0 59 31.5t18 70.5h74q-2 -37 -11 -73.5t-27.5 -64.5t-48.5 -45t-73 -17q-33 0 -66.5 14t-68.5 31 q-35 16 -66.5 30.5t-60.5 14.5q-43 0 -60.5 -32t-21.5 -71h-73zM289 573h332l-164 795h-4z" />
<glyph unicode="&#xc4;" d="M18 0l326 1479h221l326 -1479h-160l-88 438h-377l-88 -438h-160zM252 1577v209h135v-209h-135zM289 573h332l-164 795h-4zM522 1577v209h135v-209h-135z" />
<glyph unicode="&#xc5;" d="M18 0l326 1479h221l326 -1479h-160l-88 438h-377l-88 -438h-160zM260 1751q0 39 14 75t41 62.5t62.5 42t76.5 15.5t77 -15.5t61.5 -42t41 -62.5t15.5 -75q0 -41 -15.5 -75.5t-41 -61.5t-61.5 -42t-77 -15t-76.5 15t-62.5 42t-41 61.5t-14 75.5zM289 573h332l-164 795h-4z M346 1751q0 -43 32.5 -75.5t75.5 -32.5t76 32.5t33 75.5t-33 76t-76 33t-75.5 -33t-32.5 -76z" />
<glyph unicode="&#xc6;" horiz-adv-x="1478" d="M18 0l594 1479h768v-136h-487v-503h381v-135h-381v-570h512v-135h-672v438h-377l-168 -438h-170zM410 573h323v816h-4z" />
<glyph unicode="&#xc7;" horiz-adv-x="1024" d="M94 739q0 209 30 354.5t85 235.5t135 130t178 40q166 0 263.5 -114.5t115.5 -352.5h-160q-16 176 -70.5 254t-148.5 78q-70 0 -121 -33t-83.5 -106.5t-48 -193.5t-15.5 -292t15.5 -291.5t48 -193.5t84 -106.5t120.5 -32.5q55 0 99.5 20.5t75 65.5t47 116.5t18.5 174.5 h160q-4 -248 -106.5 -380t-293.5 -132q-98 0 -178 39.5t-135 130t-85 235.5t-30 354zM301 -410l29 91q25 -10 58.5 -19.5t74.5 -9.5q61 0 99 23.5t38 60.5q0 35 -28.5 61.5t-81.5 26.5q-25 0 -45.5 -6t-40.5 -15l-29 29l123 168h78l-94 -119l4 -4q20 12 63 12 q66 0 114 -36.5t48 -110.5q0 -43 -17.5 -77t-48 -57.5t-70.5 -36.5t-85 -13q-59 0 -103.5 7t-85.5 25z" />
<glyph unicode="&#xc8;" d="M135 0v1479h676v-136h-516v-503h381v-135h-381v-570h541v-135h-701zM224 1839h159l201 -282h-102z" />
<glyph unicode="&#xc9;" d="M135 0v1479h676v-136h-516v-503h381v-135h-381v-570h541v-135h-701zM351 1557l200 282h160l-258 -282h-102z" />
<glyph unicode="&#xca;" d="M135 0v1479h676v-136h-516v-503h381v-135h-381v-570h541v-135h-701zM191 1557l207 282h139l207 -282h-131l-146 209l-145 -209h-131z" />
<glyph unicode="&#xcb;" d="M135 0v1479h676v-136h-516v-503h381v-135h-381v-570h541v-135h-701zM265 1577v209h135v-209h-135zM535 1577v209h135v-209h-135z" />
<glyph unicode="&#xcc;" horiz-adv-x="454" d="M-16 1839h159l201 -282h-102zM147 0v1479h160v-1479h-160z" />
<glyph unicode="&#xcd;" horiz-adv-x="454" d="M111 1557l200 282h160l-258 -282h-102zM147 0v1479h160v-1479h-160z" />
<glyph unicode="&#xce;" horiz-adv-x="454" d="M-49 1557l207 282h139l207 -282h-131l-146 209l-145 -209h-131zM147 0v1479h160v-1479h-160z" />
<glyph unicode="&#xcf;" horiz-adv-x="454" d="M25 1577v209h135v-209h-135zM147 0v1479h160v-1479h-160zM295 1577v209h135v-209h-135z" />
<glyph unicode="&#xd0;" horiz-adv-x="1024" d="M25 705v135h110v639h275q117 0 209 -36t156.5 -121t99 -227.5t34.5 -355.5t-34.5 -355t-99 -227t-157 -121t-208.5 -36h-275v705h-110zM295 135h86q88 0 156.5 23.5t115.5 89t72 183.5t25 308t-25 308t-72 183.5t-115.5 89t-156.5 23.5h-86v-503h246v-135h-246v-570z" />
<glyph unicode="&#xd1;" horiz-adv-x="1024" d="M115 0v1479h250l380 -1090h5v1090h159v-1479h-172l-458 1286h-5v-1286h-159zM224 1577q0 33 11 69t31.5 64.5t49 48t65.5 19.5q39 0 75 -14.5t71 -30.5t65.5 -30.5t57.5 -14.5q45 0 59 31.5t18 70.5h74q-2 -37 -11 -73.5t-27.5 -64.5t-48.5 -45t-73 -17q-33 0 -66.5 14 t-68.5 31q-35 16 -66.5 30.5t-60.5 14.5q-43 0 -60.5 -32t-21.5 -71h-73z" />
<glyph unicode="&#xd2;" horiz-adv-x="1024" d="M94 739q0 207 30 351.5t85 235.5t132 132t171 41t171 -41t132 -132t85 -235.5t30 -351.5t-30 -351t-85 -235.5t-132 -132t-171 -40.5t-171 40.5t-132 132t-85 235.5t-30 351zM254 739q0 -188 20.5 -309t55.5 -191.5t82 -97t100 -26.5t100 26.5t82 97t55.5 191.5t20.5 309 t-20.5 309t-55.5 192t-82 97.5t-100 26.5t-100 -26.5t-82 -97.5t-55.5 -191.5t-20.5 -309.5zM269 1839h159l201 -282h-102z" />
<glyph unicode="&#xd3;" horiz-adv-x="1024" d="M94 739q0 207 30 351.5t85 235.5t132 132t171 41t171 -41t132 -132t85 -235.5t30 -351.5t-30 -351t-85 -235.5t-132 -132t-171 -40.5t-171 40.5t-132 132t-85 235.5t-30 351zM254 739q0 -188 20.5 -309t55.5 -191.5t82 -97t100 -26.5t100 26.5t82 97t55.5 191.5t20.5 309 t-20.5 309t-55.5 192t-82 97.5t-100 26.5t-100 -26.5t-82 -97.5t-55.5 -191.5t-20.5 -309.5zM396 1557l200 282h160l-258 -282h-102z" />
<glyph unicode="&#xd4;" horiz-adv-x="1024" d="M94 739q0 207 30 351.5t85 235.5t132 132t171 41t171 -41t132 -132t85 -235.5t30 -351.5t-30 -351t-85 -235.5t-132 -132t-171 -40.5t-171 40.5t-132 132t-85 235.5t-30 351zM236 1557l207 282h139l207 -282h-131l-146 209l-145 -209h-131zM254 739q0 -188 20.5 -309 t55.5 -191.5t82 -97t100 -26.5t100 26.5t82 97t55.5 191.5t20.5 309t-20.5 309t-55.5 192t-82 97.5t-100 26.5t-100 -26.5t-82 -97.5t-55.5 -191.5t-20.5 -309.5z" />
<glyph unicode="&#xd5;" horiz-adv-x="1024" d="M94 739q0 207 30 351.5t85 235.5t132 132t171 41t171 -41t132 -132t85 -235.5t30 -351.5t-30 -351t-85 -235.5t-132 -132t-171 -40.5t-171 40.5t-132 132t-85 235.5t-30 351zM224 1577q0 33 11 69t31.5 64.5t49 48t65.5 19.5q39 0 75 -14.5t71 -30.5t65.5 -30.5 t57.5 -14.5q45 0 59 31.5t18 70.5h74q-2 -37 -11 -73.5t-27.5 -64.5t-48.5 -45t-73 -17q-33 0 -66.5 14t-68.5 31q-35 16 -66.5 30.5t-60.5 14.5q-43 0 -60.5 -32t-21.5 -71h-73zM254 739q0 -188 20.5 -309t55.5 -191.5t82 -97t100 -26.5t100 26.5t82 97t55.5 191.5 t20.5 309t-20.5 309t-55.5 192t-82 97.5t-100 26.5t-100 -26.5t-82 -97.5t-55.5 -191.5t-20.5 -309.5z" />
<glyph unicode="&#xd6;" horiz-adv-x="1024" d="M94 739q0 207 30 351.5t85 235.5t132 132t171 41t171 -41t132 -132t85 -235.5t30 -351.5t-30 -351t-85 -235.5t-132 -132t-171 -40.5t-171 40.5t-132 132t-85 235.5t-30 351zM254 739q0 -188 20.5 -309t55.5 -191.5t82 -97t100 -26.5t100 26.5t82 97t55.5 191.5t20.5 309 t-20.5 309t-55.5 192t-82 97.5t-100 26.5t-100 -26.5t-82 -97.5t-55.5 -191.5t-20.5 -309.5zM310 1577v209h135v-209h-135zM580 1577v209h135v-209h-135z" />
<glyph unicode="&#xd7;" horiz-adv-x="1228" d="M82 98l434 434l-434 435l98 98l434 -436l435 436l98 -98l-434 -435l434 -434l-98 -98l-435 436l-434 -436z" />
<glyph unicode="&#xd8;" horiz-adv-x="1024" d="M61 -246l156 389q-59 92 -91 237.5t-32 358.5q0 207 30 351.5t85 235.5t132 132t171 41q125 0 213 -69l86 217h111l-119 -304q59 -92 93 -239.5t34 -364.5q0 -207 -30 -351t-85 -235.5t-132 -132t-171 -40.5q-63 0 -118.5 18t-102.5 59l-119 -303h-111zM254 739 q0 -133 10 -231t29 -166h4l371 942q-35 45 -74 62.5t-82 17.5q-53 0 -100 -26.5t-82 -97.5t-55.5 -191.5t-20.5 -309.5zM350 205q35 -51 75 -70.5t87 -19.5q53 0 100 26.5t82 97t55.5 191.5t20.5 309q0 141 -11 242.5t-30 173.5h-4z" />
<glyph unicode="&#xd9;" horiz-adv-x="1024" d="M135 389v1090h160v-1086q0 -55 9 -106t33.5 -89t66.5 -60.5t108 -22.5t108 22.5t66.5 60.5t33.5 89t9 106v1086h160v-1090q0 -90 -21.5 -164.5t-67.5 -129t-117 -85t-171 -30.5t-171 30.5t-117 85t-67.5 129t-21.5 164.5zM269 1839h159l201 -282h-102z" />
<glyph unicode="&#xda;" horiz-adv-x="1024" d="M135 389v1090h160v-1086q0 -55 9 -106t33.5 -89t66.5 -60.5t108 -22.5t108 22.5t66.5 60.5t33.5 89t9 106v1086h160v-1090q0 -90 -21.5 -164.5t-67.5 -129t-117 -85t-171 -30.5t-171 30.5t-117 85t-67.5 129t-21.5 164.5zM396 1557l200 282h160l-258 -282h-102z" />
<glyph unicode="&#xdb;" horiz-adv-x="1024" d="M135 389v1090h160v-1086q0 -55 9 -106t33.5 -89t66.5 -60.5t108 -22.5t108 22.5t66.5 60.5t33.5 89t9 106v1086h160v-1090q0 -90 -21.5 -164.5t-67.5 -129t-117 -85t-171 -30.5t-171 30.5t-117 85t-67.5 129t-21.5 164.5zM236 1557l207 282h139l207 -282h-131l-146 209 l-145 -209h-131z" />
<glyph unicode="&#xdc;" horiz-adv-x="1024" d="M135 389v1090h160v-1086q0 -55 9 -106t33.5 -89t66.5 -60.5t108 -22.5t108 22.5t66.5 60.5t33.5 89t9 106v1086h160v-1090q0 -90 -21.5 -164.5t-67.5 -129t-117 -85t-171 -30.5t-171 30.5t-117 85t-67.5 129t-21.5 164.5zM310 1577v209h135v-209h-135zM580 1577v209h135 v-209h-135z" />
<glyph unicode="&#xdd;" d="M33 1479h172l254 -648l246 648h172l-340 -852v-627h-160v627zM338 1557l200 282h160l-258 -282h-102z" />
<glyph unicode="&#xde;" d="M115 0v1479h159v-332h189q88 0 160.5 -28.5t125 -82t80 -128t27.5 -167.5q0 -92 -27.5 -166.5t-80 -128t-125 -82t-160.5 -28.5h-189v-336h-159zM274 471h168q121 0 187.5 65.5t66.5 204.5t-66.5 205t-187.5 66h-168v-541z" />
<glyph unicode="&#xdf;" d="M147 0v1188q0 59 19.5 115.5t57.5 99.5t94.5 69.5t127.5 26.5q152 0 240 -101.5t88 -271.5q0 -121 -38 -189.5t-109 -109.5q37 -18 71.5 -46.5t62 -75t45 -115t17.5 -168.5q0 -129 -22.5 -214t-60.5 -136.5t-89 -71.5t-108 -20t-113 24v127q47 -29 100 -29 q31 0 56.5 12.5t46 46.5t32 90t11.5 146q0 197 -49 277t-172 80v123q82 6 127 59t45 192q0 70 -14.5 117t-38 77t-55.5 42t-64 12q-72 0 -116 -52t-44 -136v-1188h-148z" />
<glyph unicode="&#xe0;" d="M98 254q0 98 48.5 173t123 129t162.5 88t168 52v76q0 88 -41 139.5t-113 51.5q-43 0 -74.5 -19.5t-54 -49.5t-36 -66.5t-19.5 -73.5l-135 20q10 63 34.5 119.5t63.5 99.5t92.5 67.5t124.5 24.5q147 0 226.5 -80.5t79.5 -222.5v-594q0 -72 7 -121t19 -67h-153l-19 90 q-23 -23 -51.5 -42t-59 -34.5t-61.5 -24.5t-55 -9q-125 0 -201 73.5t-76 200.5zM211 1466h159l201 -282h-102zM246 266q0 -76 35.5 -120t115.5 -44q59 0 110.5 35t92.5 76v360q-51 -16 -112.5 -41.5t-116 -63.5t-90 -88t-35.5 -114z" />
<glyph unicode="&#xe1;" d="M98 254q0 98 48.5 173t123 129t162.5 88t168 52v76q0 88 -41 139.5t-113 51.5q-43 0 -74.5 -19.5t-54 -49.5t-36 -66.5t-19.5 -73.5l-135 20q10 63 34.5 119.5t63.5 99.5t92.5 67.5t124.5 24.5q147 0 226.5 -80.5t79.5 -222.5v-594q0 -72 7 -121t19 -67h-153l-19 90 q-23 -23 -51.5 -42t-59 -34.5t-61.5 -24.5t-55 -9q-125 0 -201 73.5t-76 200.5zM246 266q0 -76 35.5 -120t115.5 -44q59 0 110.5 35t92.5 76v360q-51 -16 -112.5 -41.5t-116 -63.5t-90 -88t-35.5 -114zM338 1184l200 282h160l-258 -282h-102z" />
<glyph unicode="&#xe2;" d="M98 254q0 98 48.5 173t123 129t162.5 88t168 52v76q0 88 -41 139.5t-113 51.5q-43 0 -74.5 -19.5t-54 -49.5t-36 -66.5t-19.5 -73.5l-135 20q10 63 34.5 119.5t63.5 99.5t92.5 67.5t124.5 24.5q147 0 226.5 -80.5t79.5 -222.5v-594q0 -72 7 -121t19 -67h-153l-19 90 q-23 -23 -51.5 -42t-59 -34.5t-61.5 -24.5t-55 -9q-125 0 -201 73.5t-76 200.5zM178 1184l207 282h139l207 -282h-131l-146 209l-145 -209h-131zM246 266q0 -76 35.5 -120t115.5 -44q59 0 110.5 35t92.5 76v360q-51 -16 -112.5 -41.5t-116 -63.5t-90 -88t-35.5 -114z" />
<glyph unicode="&#xe3;" d="M98 254q0 98 48.5 173t123 129t162.5 88t168 52v76q0 88 -41 139.5t-113 51.5q-43 0 -74.5 -19.5t-54 -49.5t-36 -66.5t-19.5 -73.5l-135 20q10 63 34.5 119.5t63.5 99.5t92.5 67.5t124.5 24.5q147 0 226.5 -80.5t79.5 -222.5v-594q0 -72 7 -121t19 -67h-153l-19 90 q-23 -23 -51.5 -42t-59 -34.5t-61.5 -24.5t-55 -9q-125 0 -201 73.5t-76 200.5zM166 1204q0 33 11 69t31.5 64.5t49 48t65.5 19.5q39 0 75 -14.5t71 -30.5t65.5 -30.5t57.5 -14.5q45 0 59 31.5t18 70.5h74q-2 -37 -11 -73.5t-27.5 -64.5t-48.5 -45t-73 -17q-33 0 -66.5 14 t-68.5 31q-35 16 -66.5 30.5t-60.5 14.5q-43 0 -60.5 -32t-21.5 -71h-73zM246 266q0 -76 35.5 -120t115.5 -44q59 0 110.5 35t92.5 76v360q-51 -16 -112.5 -41.5t-116 -63.5t-90 -88t-35.5 -114z" />
<glyph unicode="&#xe4;" d="M98 254q0 98 48.5 173t123 129t162.5 88t168 52v76q0 88 -41 139.5t-113 51.5q-43 0 -74.5 -19.5t-54 -49.5t-36 -66.5t-19.5 -73.5l-135 20q10 63 34.5 119.5t63.5 99.5t92.5 67.5t124.5 24.5q147 0 226.5 -80.5t79.5 -222.5v-594q0 -72 7 -121t19 -67h-153l-19 90 q-23 -23 -51.5 -42t-59 -34.5t-61.5 -24.5t-55 -9q-125 0 -201 73.5t-76 200.5zM246 266q0 -76 35.5 -120t115.5 -44q59 0 110.5 35t92.5 76v360q-51 -16 -112.5 -41.5t-116 -63.5t-90 -88t-35.5 -114zM252 1204v209h135v-209h-135zM522 1204v209h135v-209h-135z" />
<glyph unicode="&#xe5;" d="M98 254q0 98 48.5 173t123 129t162.5 88t168 52v76q0 88 -41 139.5t-113 51.5q-43 0 -74.5 -19.5t-54 -49.5t-36 -66.5t-19.5 -73.5l-135 20q10 63 34.5 119.5t63.5 99.5t92.5 67.5t124.5 24.5q147 0 226.5 -80.5t79.5 -222.5v-594q0 -72 7 -121t19 -67h-153l-19 90 q-23 -23 -51.5 -42t-59 -34.5t-61.5 -24.5t-55 -9q-125 0 -201 73.5t-76 200.5zM246 266q0 -76 35.5 -120t115.5 -44q59 0 110.5 35t92.5 76v360q-51 -16 -112.5 -41.5t-116 -63.5t-90 -88t-35.5 -114zM260 1378q0 39 14 75t41 62.5t62.5 42t76.5 15.5t77 -15.5t61.5 -42 t41 -62.5t15.5 -75q0 -41 -15.5 -75.5t-41 -61.5t-61.5 -42t-77 -15t-76.5 15t-62.5 42t-41 61.5t-14 75.5zM346 1378q0 -43 32.5 -75.5t75.5 -32.5t76 32.5t33 75.5t-33 76t-76 33t-75.5 -33t-32.5 -76z" />
<glyph unicode="&#xe6;" horiz-adv-x="1251" d="M61 254q0 98 48.5 173t119 129t151.5 88t146 52v76q0 98 -37.5 144.5t-99.5 46.5q-33 0 -59.5 -19.5t-48 -49.5t-36 -66.5t-20.5 -73.5l-135 20q10 63 35 119.5t62.5 99.5t92 67.5t123.5 24.5q82 0 135.5 -37.5t82.5 -93.5q47 68 106 99.5t125 31.5q84 0 145.5 -35.5 t101.5 -102t59.5 -161t19.5 -208.5v-70h-504v-59q0 -98 18.5 -164t47 -107t63.5 -58.5t69 -17.5q43 0 73 17.5t51.5 46.5t34.5 64.5t20 72.5l139 -16q-8 -59 -35 -114.5t-67.5 -98.5t-96 -68.5t-121.5 -25.5q-86 0 -154.5 30.5t-111.5 114.5q-86 -92 -153.5 -118.5 t-112.5 -26.5q-125 0 -201 73.5t-76 200.5zM209 266q0 -76 36 -120t115 -44q47 0 94.5 35t71.5 76v360q-37 -16 -91 -41.5t-104 -63.5t-86 -88t-36 -114zM674 631h356q-4 172 -41 252t-137 80q-74 0 -124 -78t-54 -254z" />
<glyph unicode="&#xe7;" horiz-adv-x="796" d="M72 532q0 289 78.5 421t246.5 132q145 0 217 -89t95 -246h-144q-10 121 -55 167t-113 46q-47 0 -80.5 -17.5t-55 -66t-32 -132t-10.5 -215.5q0 -133 10.5 -216t32 -131t55 -65.5t80.5 -17.5q35 0 62.5 10.5t49 37t36 71.5t24.5 115h144q-10 -78 -33 -143.5t-61.5 -112.5 t-94 -73.5t-127.5 -26.5q-168 0 -246.5 132t-78.5 420zM188 -410l29 91q25 -10 58.5 -19.5t74.5 -9.5q61 0 99 23.5t38 60.5q0 35 -28.5 61.5t-81.5 26.5q-25 0 -45.5 -6t-40.5 -15l-29 29l123 168h78l-94 -119l4 -4q20 12 63 12q66 0 114 -36.5t48 -110.5q0 -43 -17.5 -77 t-48 -57.5t-70.5 -36.5t-85 -13q-59 0 -103.5 7t-85.5 25z" />
<glyph unicode="&#xe8;" horiz-adv-x="796" d="M72 532q0 289 78.5 421t246.5 132q84 0 145.5 -35.5t101.5 -102t59.5 -161t19.5 -208.5v-70h-504v-59q0 -98 11.5 -164t36 -107t61.5 -58.5t90 -17.5q43 0 72.5 17.5t51 46.5t35 64.5t19.5 72.5l139 -16q-8 -59 -34.5 -114.5t-69.5 -98.5t-101.5 -68.5t-132.5 -25.5 q-168 0 -246.5 132t-78.5 420zM156 1466h159l201 -282h-102zM219 631h356q-4 172 -40.5 252t-137.5 80q-41 0 -72.5 -16.5t-55 -54.5t-37 -102.5t-13.5 -158.5z" />
<glyph unicode="&#xe9;" horiz-adv-x="796" d="M72 532q0 289 78.5 421t246.5 132q84 0 145.5 -35.5t101.5 -102t59.5 -161t19.5 -208.5v-70h-504v-59q0 -98 11.5 -164t36 -107t61.5 -58.5t90 -17.5q43 0 72.5 17.5t51 46.5t35 64.5t19.5 72.5l139 -16q-8 -59 -34.5 -114.5t-69.5 -98.5t-101.5 -68.5t-132.5 -25.5 q-168 0 -246.5 132t-78.5 420zM219 631h356q-4 172 -40.5 252t-137.5 80q-41 0 -72.5 -16.5t-55 -54.5t-37 -102.5t-13.5 -158.5zM283 1184l200 282h160l-258 -282h-102z" />
<glyph unicode="&#xea;" horiz-adv-x="796" d="M72 532q0 289 78.5 421t246.5 132q84 0 145.5 -35.5t101.5 -102t59.5 -161t19.5 -208.5v-70h-504v-59q0 -98 11.5 -164t36 -107t61.5 -58.5t90 -17.5q43 0 72.5 17.5t51 46.5t35 64.5t19.5 72.5l139 -16q-8 -59 -34.5 -114.5t-69.5 -98.5t-101.5 -68.5t-132.5 -25.5 q-168 0 -246.5 132t-78.5 420zM123 1184l207 282h139l207 -282h-131l-146 209l-145 -209h-131zM219 631h356q-4 172 -40.5 252t-137.5 80q-41 0 -72.5 -16.5t-55 -54.5t-37 -102.5t-13.5 -158.5z" />
<glyph unicode="&#xeb;" horiz-adv-x="796" d="M72 532q0 289 78.5 421t246.5 132q84 0 145.5 -35.5t101.5 -102t59.5 -161t19.5 -208.5v-70h-504v-59q0 -98 11.5 -164t36 -107t61.5 -58.5t90 -17.5q43 0 72.5 17.5t51 46.5t35 64.5t19.5 72.5l139 -16q-8 -59 -34.5 -114.5t-69.5 -98.5t-101.5 -68.5t-132.5 -25.5 q-168 0 -246.5 132t-78.5 420zM197 1204v209h135v-209h-135zM219 631h356q-4 172 -40.5 252t-137.5 80q-41 0 -72.5 -16.5t-55 -54.5t-37 -102.5t-13.5 -158.5zM467 1204v209h135v-209h-135z" />
<glyph unicode="&#xec;" horiz-adv-x="454" d="M-16 1466h159l201 -282h-102zM154 0v1065h147v-1065h-147z" />
<glyph unicode="&#xed;" horiz-adv-x="454" d="M111 1184l200 282h160l-258 -282h-102zM154 0v1065h147v-1065h-147z" />
<glyph unicode="&#xee;" horiz-adv-x="454" d="M-49 1184l207 282h139l207 -282h-131l-146 209l-145 -209h-131zM154 0v1065h147v-1065h-147z" />
<glyph unicode="&#xef;" horiz-adv-x="454" d="M25 1204v209h135v-209h-135zM154 0v1065h147v-1065h-147zM295 1204v209h135v-209h-135z" />
<glyph unicode="&#xf0;" horiz-adv-x="796" d="M72 532q0 289 78.5 421t246.5 132q31 0 57.5 -4t43.5 -14q-10 43 -27.5 84t-40.5 78l-186 -70l-49 94l174 66q-45 63 -99 115l136 45q27 -25 50 -51.5t46 -57.5l200 76l50 -94l-191 -72q88 -154 125 -344.5t37 -403.5q0 -289 -79 -420.5t-247 -131.5t-246.5 132 t-78.5 420zM219 532q0 -133 10.5 -216t32 -131t55 -65.5t80.5 -17.5t81 17.5t55.5 65.5t31.5 131t10 216q0 131 -10 215t-31.5 132.5t-55.5 66t-81 17.5t-80.5 -17.5t-55 -66t-32 -132.5t-10.5 -215z" />
<glyph unicode="&#xf1;" d="M147 0v1065h140v-117q53 53 120.5 95t120.5 42q111 0 172.5 -65.5t61.5 -212.5v-807h-148v786q0 92 -28.5 134.5t-87.5 42.5q-53 0 -103.5 -35t-99.5 -97v-831h-148zM166 1204q0 33 11 69t31.5 64.5t49 48t65.5 19.5q39 0 75 -14.5t71 -30.5t65.5 -30.5t57.5 -14.5 q45 0 59 31.5t18 70.5h74q-2 -37 -11 -73.5t-27.5 -64.5t-48.5 -45t-73 -17q-33 0 -66.5 14t-68.5 31q-35 16 -66.5 30.5t-60.5 14.5q-43 0 -60.5 -32t-21.5 -71h-73z" />
<glyph unicode="&#xf2;" horiz-adv-x="796" d="M72 532q0 289 78.5 421t246.5 132t247 -132t79 -421t-79 -420.5t-247 -131.5t-246.5 131.5t-78.5 420.5zM156 1466h159l201 -282h-102zM219 532q0 -133 10.5 -216t32 -131t55 -65.5t80.5 -17.5t81 17.5t55.5 65.5t31.5 131t10 216q0 131 -10 215t-31.5 132.5t-55.5 66 t-81 17.5t-80.5 -17.5t-55 -66t-32 -132.5t-10.5 -215z" />
<glyph unicode="&#xf3;" horiz-adv-x="796" d="M72 532q0 289 78.5 421t246.5 132t247 -132t79 -421t-79 -420.5t-247 -131.5t-246.5 131.5t-78.5 420.5zM219 532q0 -133 10.5 -216t32 -131t55 -65.5t80.5 -17.5t81 17.5t55.5 65.5t31.5 131t10 216q0 131 -10 215t-31.5 132.5t-55.5 66t-81 17.5t-80.5 -17.5t-55 -66 t-32 -132.5t-10.5 -215zM283 1184l200 282h160l-258 -282h-102z" />
<glyph unicode="&#xf4;" horiz-adv-x="796" d="M72 532q0 289 78.5 421t246.5 132t247 -132t79 -421t-79 -420.5t-247 -131.5t-246.5 131.5t-78.5 420.5zM123 1184l207 282h139l207 -282h-131l-146 209l-145 -209h-131zM219 532q0 -133 10.5 -216t32 -131t55 -65.5t80.5 -17.5t81 17.5t55.5 65.5t31.5 131t10 216 q0 131 -10 215t-31.5 132.5t-55.5 66t-81 17.5t-80.5 -17.5t-55 -66t-32 -132.5t-10.5 -215z" />
<glyph unicode="&#xf5;" horiz-adv-x="796" d="M72 532q0 289 78.5 421t246.5 132t247 -132t79 -421t-79 -420.5t-247 -131.5t-246.5 131.5t-78.5 420.5zM111 1204q0 33 11 69t31.5 64.5t49 48t65.5 19.5q39 0 75 -14.5t71 -30.5t65.5 -30.5t57.5 -14.5q45 0 59 31.5t18 70.5h74q-2 -37 -11 -73.5t-27.5 -64.5 t-48.5 -45t-73 -17q-33 0 -66.5 14t-68.5 31q-35 16 -66.5 30.5t-60.5 14.5q-43 0 -60.5 -32t-21.5 -71h-73zM219 532q0 -133 10.5 -216t32 -131t55 -65.5t80.5 -17.5t81 17.5t55.5 65.5t31.5 131t10 216q0 131 -10 215t-31.5 132.5t-55.5 66t-81 17.5t-80.5 -17.5t-55 -66 t-32 -132.5t-10.5 -215z" />
<glyph unicode="&#xf6;" horiz-adv-x="796" d="M72 532q0 289 78.5 421t246.5 132t247 -132t79 -421t-79 -420.5t-247 -131.5t-246.5 131.5t-78.5 420.5zM197 1204v209h135v-209h-135zM219 532q0 -133 10.5 -216t32 -131t55 -65.5t80.5 -17.5t81 17.5t55.5 65.5t31.5 131t10 216q0 131 -10 215t-31.5 132.5t-55.5 66 t-81 17.5t-80.5 -17.5t-55 -66t-32 -132.5t-10.5 -215zM467 1204v209h135v-209h-135z" />
<glyph unicode="&#xf7;" horiz-adv-x="1228" d="M82 465v135h1065v-135h-1065zM479 115q0 55 40 95t95 40t95.5 -40t40.5 -95t-40 -95t-96 -40q-55 0 -95 40t-40 95zM479 950q0 55 40 95t95 40t95.5 -39.5t40.5 -95.5q0 -55 -40 -95t-96 -40q-55 0 -95 40t-40 95z" />
<glyph unicode="&#xf8;" horiz-adv-x="796" d="M43 -246l129 326q-100 131 -100 452q0 289 78.5 421t246.5 132q96 0 156 -41l96 246h103l-125 -315q96 -129 96 -443q0 -289 -79 -420.5t-247 -131.5q-90 0 -147 36l-105 -262h-102zM219 532q0 -184 19 -278h4l262 670q-37 39 -107 39q-47 0 -80.5 -17.5t-55 -66 t-32 -132t-10.5 -215.5zM297 137q18 -20 44 -27.5t56 -7.5q47 0 81 17.5t55.5 65.5t31.5 131t10 216q0 170 -16 265h-4z" />
<glyph unicode="&#xf9;" d="M147 258v807h148v-786q0 -92 28.5 -134.5t88.5 -42.5q53 0 103 35t99 96v832h148v-1065h-139v117q-53 -53 -121 -95t-121 -42q-111 0 -172.5 65.5t-61.5 212.5zM211 1466h159l201 -282h-102z" />
<glyph unicode="&#xfa;" d="M147 258v807h148v-786q0 -92 28.5 -134.5t88.5 -42.5q53 0 103 35t99 96v832h148v-1065h-139v117q-53 -53 -121 -95t-121 -42q-111 0 -172.5 65.5t-61.5 212.5zM338 1184l200 282h160l-258 -282h-102z" />
<glyph unicode="&#xfb;" d="M147 258v807h148v-786q0 -92 28.5 -134.5t88.5 -42.5q53 0 103 35t99 96v832h148v-1065h-139v117q-53 -53 -121 -95t-121 -42q-111 0 -172.5 65.5t-61.5 212.5zM178 1184l207 282h139l207 -282h-131l-146 209l-145 -209h-131z" />
<glyph unicode="&#xfc;" d="M147 258v807h148v-786q0 -92 28.5 -134.5t88.5 -42.5q53 0 103 35t99 96v832h148v-1065h-139v117q-53 -53 -121 -95t-121 -42q-111 0 -172.5 65.5t-61.5 212.5zM252 1204v209h135v-209h-135zM522 1204v209h135v-209h-135z" />
<glyph unicode="&#xfd;" horiz-adv-x="681" d="M4 1065h152l200 -815h4l164 815h152l-244 -1042q-41 -176 -121 -273.5t-215 -97.5h-76v123h46q88 0 143 60.5t78 172.5zM226 1184l200 282h160l-258 -282h-102z" />
<glyph unicode="&#xfe;" d="M160 -348v1827h139v-492h4q31 39 80 68.5t121 29.5q63 0 118.5 -28.5t97.5 -94t66.5 -171t24.5 -259.5t-24.5 -259t-66.5 -170.5t-97.5 -94t-118.5 -28.5q-59 0 -109.5 30.5t-87.5 67.5v-426h-147zM307 197q33 -33 72 -64t88 -31q47 0 84 21.5t61.5 71t38 132.5t13.5 205 q0 123 -14.5 206t-40 132.5t-63.5 71t-83 21.5q-35 0 -78 -28t-78 -75v-663z" />
<glyph unicode="&#xff;" horiz-adv-x="681" d="M4 1065h152l200 -815h4l164 815h152l-244 -1042q-41 -176 -121 -273.5t-215 -97.5h-76v123h46q88 0 143 60.5t78 172.5zM140 1204v209h135v-209h-135zM410 1204v209h135v-209h-135z" />
<glyph unicode="&#x152;" horiz-adv-x="1478" d="M74 739q0 219 31.5 361.5t97 226.5t168 118t243.5 34h766v-136h-479v-503h365v-135h-365v-570h504v-135h-791q-141 0 -243.5 34t-168 118t-97 226t-31.5 361zM233 739q0 -178 23 -294.5t63.5 -184t100 -94.5t133.5 -27q100 0 144 41t44 164v791q0 123 -44 163.5 t-144 40.5q-74 0 -133.5 -26.5t-100 -94t-63.5 -184t-23 -295.5z" />
<glyph unicode="&#x153;" horiz-adv-x="1251" d="M47 532q0 289 79 421t247 132q98 0 160.5 -43t97.5 -137q41 92 99 136t126 44q84 0 145.5 -35.5t101.5 -102t59.5 -161t19.5 -208.5v-70h-480v-59q0 -98 14.5 -164t38 -107t55.5 -58.5t67 -17.5q43 0 72.5 17.5t51 46.5t32.5 64.5t18 72.5l139 -16q-6 -59 -31.5 -114.5 t-66.5 -98.5t-96.5 -68.5t-121.5 -25.5q-72 0 -138 34.5t-111 130.5q-66 -166 -252 -165q-168 0 -247 132t-79 420zM195 532q0 -133 10 -216t31.5 -131t55.5 -65.5t81 -17.5t80.5 17.5t56 65.5t34 131t11.5 216q0 131 -11.5 215t-34 132.5t-56 66t-80.5 17.5t-81 -17.5 t-55.5 -66t-31.5 -132.5t-10 -215zM702 631h332q-4 172 -41 252t-137 80q-63 0 -105 -76t-49 -256z" />
<glyph unicode="&#x178;" d="M33 1479h172l254 -648l246 648h172l-340 -852v-627h-160v627zM252 1577v209h135v-209h-135zM522 1577v209h135v-209h-135z" />
<glyph unicode="&#x2c6;" horiz-adv-x="454" d="M-49 1184l207 282h139l207 -282h-131l-146 209l-145 -209h-131z" />
<glyph unicode="&#x2dc;" horiz-adv-x="454" d="M-61 1204q0 33 11 69t31.5 64.5t49 48t65.5 19.5q39 0 75 -14.5t71 -30.5t65.5 -30.5t57.5 -14.5q45 0 59 31.5t18 70.5h74q-2 -37 -11 -73.5t-27.5 -64.5t-48.5 -45t-73 -17q-33 0 -66.5 14t-68.5 31q-35 16 -66.5 30.5t-60.5 14.5q-43 0 -60.5 -32t-21.5 -71h-73z" />
<glyph unicode="&#x2000;" horiz-adv-x="973" />
<glyph unicode="&#x2001;" horiz-adv-x="1946" />
<glyph unicode="&#x2002;" horiz-adv-x="973" />
<glyph unicode="&#x2003;" horiz-adv-x="1946" />
<glyph unicode="&#x2004;" horiz-adv-x="648" />
<glyph unicode="&#x2005;" horiz-adv-x="486" />
<glyph unicode="&#x2006;" horiz-adv-x="324" />
<glyph unicode="&#x2007;" horiz-adv-x="324" />
<glyph unicode="&#x2008;" horiz-adv-x="243" />
<glyph unicode="&#x2009;" horiz-adv-x="389" />
<glyph unicode="&#x200a;" horiz-adv-x="108" />
<glyph unicode="&#x2010;" horiz-adv-x="681" d="M88 465v135h504v-135h-504z" />
<glyph unicode="&#x2011;" horiz-adv-x="681" d="M88 465v135h504v-135h-504z" />
<glyph unicode="&#x2012;" horiz-adv-x="681" d="M88 465v135h504v-135h-504z" />
<glyph unicode="&#x2013;" horiz-adv-x="1024" d="M0 483v99h1024v-99h-1024z" />
<glyph unicode="&#x2014;" horiz-adv-x="2048" d="M0 483v99h2048v-99h-2048z" />
<glyph unicode="&#x2018;" horiz-adv-x="454" d="M147 999v205l123 295h62l-94 -307h81v-193h-172z" />
<glyph unicode="&#x2019;" horiz-adv-x="454" d="M123 979l94 307h-82v193h172v-205l-123 -295h-61z" />
<glyph unicode="&#x201a;" horiz-adv-x="454" d="M123 -307l94 307h-82v193h172v-205l-123 -295h-61z" />
<glyph unicode="&#x201c;" horiz-adv-x="796" d="M147 999v205l123 295h62l-94 -307h81v-193h-172zM489 999v205l123 295h62l-94 -307h82v-193h-173z" />
<glyph unicode="&#x201d;" horiz-adv-x="796" d="M123 979l94 307h-82v193h172v-205l-123 -295h-61zM465 979l94 307h-82v193h172v-205l-123 -295h-61z" />
<glyph unicode="&#x201e;" horiz-adv-x="796" d="M123 -307l94 307h-82v193h172v-205l-123 -295h-61zM465 -307l94 307h-82v193h172v-205l-123 -295h-61z" />
<glyph unicode="&#x2022;" horiz-adv-x="1024" d="M141 739q0 76 29 143.5t79 118t116.5 79t144.5 28.5q76 0 143.5 -28.5t118.5 -79t80 -118t29 -143.5q0 -78 -29 -144.5t-80 -117.5t-118.5 -79.5t-143.5 -28.5q-78 0 -144.5 28.5t-116.5 79.5t-79 117.5t-29 144.5z" />
<glyph unicode="&#x2026;" horiz-adv-x="2048" d="M256 0v193h172v-193h-172zM938 0v193h172v-193h-172zM1620 0v193h172v-193h-172z" />
<glyph unicode="&#x202f;" horiz-adv-x="389" />
<glyph unicode="&#x2039;" horiz-adv-x="681" d="M147 532l254 316h140l-262 -316l262 -315h-140z" />
<glyph unicode="&#x203a;" horiz-adv-x="681" d="M141 217l262 315l-262 316h140l254 -316l-254 -315h-140z" />
<glyph unicode="&#x205f;" horiz-adv-x="486" />
<glyph unicode="&#x2122;" horiz-adv-x="2027" d="M78 1368v111h684v-111h-275v-756h-135v756h-274zM901 612v867h215l258 -658l254 658h217v-867h-135v731h-4l-289 -731h-90l-285 731h-6v-731h-135z" />
<glyph unicode="&#xe000;" horiz-adv-x="1064" d="M0 0v1065h1065v-1065h-1065z" />
<glyph unicode="&#xfb01;" d="M4 942v123h164v217q0 109 48 163t169 54q29 0 58.5 -4t56.5 -8v-115q-35 16 -80 17q-53 0 -79 -31t-26 -82v-211h172v-123h-172v-942h-147v942h-164zM629 0v1065h147v-1065h-147zM629 1307v172h147v-172h-147z" />
<glyph unicode="&#xfb02;" d="M4 942v123h164v217q0 109 48 163t169 54q29 0 58.5 -4t56.5 -8v-115q-35 16 -80 17q-53 0 -79 -31t-26 -82v-211h172v-123h-172v-942h-147v942h-164zM629 0v1479h147v-1479h-147z" />
</font>
</defs>
</svg>
